# xmcd
#
# Track frame offsets:
#	150
#	10377
#	24230
#	37686
#	51492
#	70041
#	81408
#	93929
#	106289
#	117577
#	132228
#	145739
#	154520
#	167894
#
# Disc length: 2416 seconds
#
# Revision: 1
# Processed by: cddbd v1.5.2PL0 Copyright (c) Steve Scherf et al.
# Submitted via: audiograbber 1.83.01
#
DISCID=b1096e0e
DTITLE=Különbözö elõadók Legendák Budapesten - Legendák Budapesten
DYEAR=1998
DGENRE=Blues
TTITLE0=Vico Torriani - Nostalgia
TTITLE1=Vico Torriani - Ave Mária
TTITLE2=Ines Taddio - Nessuno at mondo
TTITLE3=Ines Taddio - Un anno d' amore
TTITLE4=Gilbert Becaud - Nathalie
TTITLE5=Rhoda Scott - Hello Dolly
TTITLE6=The Spencer - Keep On Running
TTITLE7=Ines Taddio - Tintarella
TTITLE8=Ines Taddio - Viva L' amour
TTITLE9=Vico Torriani - Mecky Messer
TTITLE10=Vico Torriani - Melancholie
TTITLE11=Ines Taddio - Renato
TTITLE12=Rhoda Scott - Promises
TTITLE13=Louis Armstrong - Tin Roof Blues
EXTD=
EXTT0=
EXTT1=
EXTT2=
EXTT3=
EXTT4=
EXTT5=
EXTT6=
EXTT7=
EXTT8=
EXTT9=
EXTT10=
EXTT11=
EXTT12=
EXTT13=
PLAYORDER=
